<svg id="Layer_1" data-name="Layer 1" xmlns="http://www.w3.org/2000/svg" viewBox="0 0 259.2 263.52"><defs><style>.cls-1{fill:#fcb731;}.cls-2{fill:#231f20;}.cls-3{fill:#bcbcbc;}</style></defs><path class="cls-1" d="M257,84.38,132.12,263.52l-15.06-56.11,35.48-44.75,6.15-7.77-3.19-.18a9.37,9.37,0,0,0,6.76-5.59c2.3-5.85-2.18-12.54-3.61-14.46l-.15-.18c-17.89-21.77-44.18-33.6-45.3-34.1C92.64,91.3,77.86,86.68,69.28,86.66h0A8,8,0,0,0,62.12,91a8.08,8.08,0,0,0-.61,6,26.4,26.4,0,0,1-2.9-4s0,0,0,0l-9.27,4.45a.05.05,0,0,1,0,0A36.93,36.93,0,0,0,52,102l-1.26-1.37-4,16.76-28.5-.82-16-63.35L44.82,0,181.11,26.09l41.52,68.67Z"/><polygon class="cls-1" points="183.5 247.55 229.02 201.77 200.8 196.97 183.5 247.55"/><path class="cls-2" d="M40.48,218.18s17.94,16,47.09,18.15l60.94-76.86s-53.52-2.88-95-48.23l-2.28,9.47s18.63,25.16,60.53,35.79l-14.6,25.55s-36.24-7.74-52.36-28.91l-2.29,8.68s13.82,16.85,50.25,26.25c0,0,2.3.81,1.09,4.19,0,0-.57,3.46-5.06,2,0,0-31.79-6.15-47.41-24.45l-1.22,4.62s7.18,13,45.41,25.17c0,0,2.44,1.28,1.61,4.71,0,0-.85,3.14-5.36,1.46,0,0-25.82-4.94-43.34-23.11l-1,4.78s13.66,15.86,40.36,23.28c0,0,2.42,1,.94,4.25a3.29,3.29,0,0,1-3.92,2s-25.65-6.47-38.93-21.85l-2.38,9.45S46.94,219.47,72,224.12c0,0,2.44.49,1,4,0,0-.4,2.06-3.23,1.58A115.56,115.56,0,0,1,40.48,218.18Z"/><path class="cls-3" d="M119.52,143.64l3.92-7.3s4.22-4.49-5.22-8.53c0,0-36.23-12.47-50.09-29.67A3.82,3.82,0,0,1,71.4,91.9c6.13.56,17.77,3.48,39.73,13.19,0,0,26.08,11.58,43.4,32.65,0,0,7.88,10.54-1,12.14C153.57,149.88,139.37,151.76,119.52,143.64Z"/><path class="cls-2" d="M113.38,135.68l-2.5,4.7S67.41,121.86,56.37,99.17C56.37,99.17,63.71,115.71,113.38,135.68Z"/></svg>