<svg id="Layer_1" data-name="Layer 1" xmlns="http://www.w3.org/2000/svg" viewBox="0 0 385.53 84.13"><defs><style>.cls-1{fill:#fcb731;}.cls-2{fill:#231f20;}.cls-3{fill:#bcbcbc;}</style></defs><path class="cls-1" d="M81.33,26.94,41.47,84.13,36.66,66.22,48,51.93l2-2.48-1-.05a3,3,0,0,0,2.16-1.79c.74-1.87-.7-4-1.15-4.62l0-.06C44.18,36,35.79,32.21,35.43,32.05c-6.57-2.9-11.28-4.38-14-4.38h0A2.59,2.59,0,0,0,18.92,31,8.52,8.52,0,0,1,18,29.69s0,0,0,0l-3,1.42h0a12.05,12.05,0,0,0,.84,1.47l-.4-.44L14.2,37.48l-9.1-.26L0,17,13.59,0,57.11,8.33,70.36,30.26Z"/><polygon class="cls-1" points="57.87 79.03 72.41 64.42 63.4 62.89 57.87 79.03"/><path class="cls-2" d="M12.21,69.66a27.06,27.06,0,0,0,15,5.79L46.7,50.91a48.38,48.38,0,0,1-30.34-15.4l-.73,3S21.57,46.57,35,50l-4.66,8.16s-11.57-2.47-16.72-9.23l-.73,2.77S17.25,57,28.89,60c0,0,.73.26.34,1.34,0,0-.18,1.11-1.61.64,0,0-10.15-2-15.14-7.81l-.39,1.48s2.29,4.15,14.5,8a1.29,1.29,0,0,1,.52,1.51s-.28,1-1.72.46c0,0-8.24-1.57-13.84-7.37l-.3,1.52a27.7,27.7,0,0,0,12.89,7.43s.77.31.3,1.36a1.06,1.06,0,0,1-1.26.64s-8.18-2.07-12.43-7l-.75,3a23.09,23.09,0,0,0,12.26,6.25s.78.15.32,1.26c0,0-.13.66-1,.51A36.86,36.86,0,0,1,12.21,69.66Z"/><path class="cls-3" d="M37.45,45.86l1.25-2.33S40,42.1,37,40.81c0,0-11.57-4-16-9.48a1.22,1.22,0,0,1,1-2c2,.18,5.68,1.11,12.69,4.21,0,0,8.32,3.7,13.85,10.43,0,0,2.52,3.36-.3,3.87C48.32,47.85,43.78,48.45,37.45,45.86Z"/><path class="cls-2" d="M35.49,43.32l-.8,1.5S20.81,38.91,17.28,31.66C17.28,31.66,19.63,36.94,35.49,43.32Z"/><path class="cls-2" d="M80.15,44.12c0-4,2.11-5.33,5.33-5.33H99.42c7.66,0,13.83,3.78,13.83,12.66,0,7.28-5.06,12.67-13.89,12.67H89.25V75a4.55,4.55,0,0,1-9.1,0Zm9.1,13h8.5c3.67,0,6.39-2.22,6.39-5.67,0-4-2.83-5.66-7.33-5.66H89.25Z"/><path class="cls-2" d="M117.3,52.79a3.67,3.67,0,1,1,7.34,0V55.9h.11c.94-3.39,2.77-6.89,6.72-6.89,2.55,0,4.44,1.67,4.44,3.94a3.71,3.71,0,0,1-4,4.06h-1.44c-3.28,0-5.06,2.27-5.06,9v9.45c0,2.16-.89,4-4,4s-4.06-1.89-4.06-4Z"/><path class="cls-2" d="M144.3,65.78c0,4.28,2.78,7.39,7.5,7.39,6.11,0,6.11-4,9.38-4a3.36,3.36,0,0,1,3.34,3.17c0,4.88-7.84,7.16-12.72,7.16-11.33,0-15.61-7.66-15.61-14.72,0-9.44,5.72-15.77,15.33-15.77,9.33,0,14.66,6.61,14.66,13.27,0,2.78-.83,3.5-3.55,3.5Zm14.22-4.66a7,7,0,0,0-6.84-6.45c-4.05,0-6.49,2.5-7.38,6.45Z"/><path class="cls-2" d="M180.9,49c6.17,0,12.39,2.44,12.39,6.16a3.38,3.38,0,0,1-3.39,3.56c-3.17,0-3.28-3.72-8.39-3.72-2.83,0-4.66.78-4.66,2.5,0,1.89,1.83,2.33,4.33,2.89l3.39.77c4.61,1.06,10.1,3,10.1,8.67,0,6.61-6.38,9.66-12.49,9.66-7.33,0-13.44-3.27-13.44-7.27A3.11,3.11,0,0,1,172,68.84c3.5,0,3.84,5,9.83,5,2.89,0,4.73-1.28,4.73-3,0-2-1.78-2.39-4.67-3.11l-4.78-1.16c-4.72-1.17-8.38-3.11-8.38-8.56C168.74,51.45,175.29,49,180.9,49Z"/><path class="cls-2" d="M209.34,49c6.16,0,12.38,2.44,12.38,6.16a3.37,3.37,0,0,1-3.38,3.56c-3.17,0-3.28-3.72-8.39-3.72-2.83,0-4.67.78-4.67,2.5,0,1.89,1.84,2.33,4.34,2.89l3.38.77c4.61,1.06,10.11,3,10.11,8.67,0,6.61-6.39,9.66-12.5,9.66-7.33,0-13.44-3.27-13.44-7.27a3.11,3.11,0,0,1,3.28-3.39c3.5,0,3.83,5,9.83,5,2.89,0,4.72-1.28,4.72-3,0-2-1.77-2.39-4.66-3.11l-4.78-1.16c-4.72-1.17-8.39-3.11-8.39-8.56C197.17,51.45,203.73,49,209.34,49Z"/><path class="cls-2" d="M249.17,40.84c.78-2.05,2.23-2.77,4.45-2.77h2.16c2.06,0,3.89.5,4.89,3.33l11,30.6a12.6,12.6,0,0,1,.89,3.5,4.16,4.16,0,0,1-4.28,4c-2,0-3.44-.72-4.11-2.5l-2.33-6.66H247.17L244.79,77c-.61,1.78-1.89,2.5-4.06,2.5a3.88,3.88,0,0,1-4.22-4,12.6,12.6,0,0,1,.89-3.5Zm5.5,7.11h-.11L249.17,64h10.67Z"/><path class="cls-2" d="M277.44,55.06h-1.83c-2.28,0-3.22-.89-3.22-2.66s.94-2.67,3.22-2.67h1.83v-4c0-5.11,4.23-7.83,8.95-7.83,2.94,0,5.33,1.16,5.33,3.88a2.72,2.72,0,0,1-2.61,2.78c-.61,0-1.17-.17-1.78-.17a1.7,1.7,0,0,0-1.78,1.89v3.5h2.5c2.39,0,3.67.72,3.67,2.67s-1.28,2.66-3.67,2.66h-2.5V75.45a4.06,4.06,0,0,1-8.11,0Z"/><path class="cls-2" d="M294.5,52.79a3.67,3.67,0,1,1,7.33,0V55.9h.11c.94-3.39,2.78-6.89,6.72-6.89,2.55,0,4.44,1.67,4.44,3.94a3.71,3.71,0,0,1-4,4.06h-1.44c-3.28,0-5.05,2.27-5.05,9v9.45c0,2.16-.89,4-4.06,4s-4.05-1.89-4.05-4Z"/><path class="cls-2" d="M319.77,37.85a4.22,4.22,0,1,1-4.22,4.22A4.21,4.21,0,0,1,319.77,37.85Zm-4.06,15.21c0-2.16.89-4.05,4.06-4.05s4.05,1.89,4.05,4.05V75.45c0,2.16-.89,4-4.05,4s-4.06-1.89-4.06-4Z"/><path class="cls-2" d="M343,49c6.78,0,11.84,3.83,11.84,7.61,0,2.33-1.73,3.5-3.78,3.5-3.83,0-2.45-4.78-8.28-4.78-3.16,0-6.88,2.17-6.88,9.5,0,5,2.38,8.33,6.83,8.33,5.66,0,4.44-5.22,8.72-5.22a3.22,3.22,0,0,1,3.39,3.11c0,3.55-4,8.44-12.33,8.44-10,0-14.72-6.16-14.72-14.66C327.77,55.51,333,49,343,49Z"/><path class="cls-2" d="M384.7,71c0,3.39.83,4.16.83,5.44,0,1.83-1.72,3.11-3.67,3.11-3.5,0-4.66-2.22-4.77-4.72A14,14,0,0,1,366,79.5c-4.61,0-9.17-3.16-9.17-8.27,0-6.72,5.11-8.61,11.33-9.33l4.95-.56c1.94-.22,3.5-.67,3.5-3S374.2,55,371.48,55c-6,0-6.17,4.44-9.39,4.44a3.22,3.22,0,0,1-3.44-3.11c0-3.22,4.55-7.33,12.88-7.33,7.78,0,13.17,2.5,13.17,8.33Zm-8.11-5.83a7.26,7.26,0,0,1-3.5,1.27l-2.95.45c-3.38.5-5.22,1.55-5.22,4,0,1.83,1.72,3.33,4.5,3.33,4.45,0,7.17-2.89,7.17-5.89Z"/><polygon class="cls-1" points="226.39 57.64 239 39.37 228.71 38.3 223.11 44.02 227.06 47.58 226.39 57.64"/></svg>